<svg id="Laag_1" data-name="Laag 1" xmlns="http://www.w3.org/2000/svg" viewBox="0 0 786.98 1000"><defs><style>.cls-1{font-size:247.31px;font-family:Gotham-Bold, Gotham;font-weight:700;}.cls-1,.cls-16,.cls-7{fill:#fff;}.cls-2{letter-spacing:-0.05em;}.cls-3{letter-spacing:-0.01em;}.cls-4{letter-spacing:-0.01em;}.cls-5{letter-spacing:-0.01em;}.cls-6{letter-spacing:-0.03em;}.cls-7{font-size:51.52px;font-family:Gotham-Book, Gotham;letter-spacing:0.07em;}.cls-8{letter-spacing:0.08em;}.cls-9{letter-spacing:0.09em;}.cls-10{letter-spacing:0.09em;}.cls-11{letter-spacing:0.09em;}.cls-12{letter-spacing:0.09em;}.cls-13{letter-spacing:0.09em;}.cls-14{letter-spacing:0.07em;}.cls-15{letter-spacing:0.1em;}</style></defs><title>Tekengebied 1 kopie 2</title><text class="cls-1" transform="translate(1.7 835.84)"><tspan class="cls-2">y</tspan><tspan class="cls-3" x="137.25" y="0">o</tspan><tspan class="cls-4" x="297.83" y="0">u</tspan><tspan class="cls-5" x="450.58" y="0">f</tspan><tspan class="cls-6" x="542.01" y="0">r</tspan><tspan x="637.3" y="0">a</tspan></text><text class="cls-7" transform="translate(232.7 946.75)">v<tspan class="cls-8" x="34.09" y="0">l</tspan><tspan class="cls-9" x="51.8" y="0">a</tspan><tspan class="cls-10" x="86.1" y="0">a</tspan><tspan class="cls-11" x="120.47" y="0">n</tspan><tspan class="cls-12" x="156.71" y="0">d</tspan><tspan class="cls-13" x="195.39" y="0">e</tspan><tspan class="cls-14" x="230.47" y="0">r</tspan><tspan class="cls-13" x="254.89" y="0">e</tspan><tspan class="cls-15" x="289.97" y="0">n</tspan></text><path class="cls-16" d="M499.82,150.12a1.73,1.73,0,0,1,2.14.81l1.67,2.29a301.54,301.54,0,0,0,24.12-21.79,288.65,288.65,0,0,0,26.49-30.14c-3.07-2.41-6.17-4.76-9.34-7a299.18,299.18,0,0,1-25.51,28.81,288.89,288.89,0,0,1-35.06,30.22q6.51-1.28,13-2.62C498.17,150.48,499,150.36,499.82,150.12Z"/><path class="cls-16" d="M338.39,225a290.69,290.69,0,0,0-29.73,26.19c-41.5,41.51-51.85,71.56-62.81,103.39-10.85,31.52-22.08,64.12-65.27,107.31-7.42,7.42-14.51,13.84-21.35,19.53,2.31,3.19,4.69,6.31,7.14,9.39,7.17-5.87,14.66-12.64,22.57-20.55,41.51-41.51,51.86-71.56,62.82-103.39,10.85-31.52,22.08-64.13,65.27-107.32A282,282,0,0,1,355.31,227a111.88,111.88,0,0,0-15.51-2Z"/><path class="cls-16" d="M390.85,163.71l2.21-.76c31.82-11,61.88-21.31,103.4-62.82a304.65,304.65,0,0,0,21.09-23.28q-5.25-2.91-10.64-5.6c-5.53,6.59-11.7,13.4-18.82,20.51-43.2,43.2-75.8,54.43-107.33,65.29-6,2.07-12,4.12-18,6.37l.33,0C372.37,163.84,381.61,163.79,390.85,163.71Z"/><path class="cls-16" d="M253.13,247.06C231,275.41,223,298.81,214.55,323.26c-10.85,31.52-22.08,64.12-65.27,107.31-4.57,4.57-9,8.71-13.34,12.6q2.73,5.44,5.69,10.75c5.16-4.5,10.48-9.45,16-15,41.51-41.51,51.86-71.56,62.82-103.39,10-29,20.3-58.9,55.48-97.11l-6.6,2.47C263.94,243,258.54,245,253.13,247.06Z"/><path class="cls-16" d="M458.15,157.87c16.29-9.1,33.77-21.91,54-42.1a290.6,290.6,0,0,0,24.37-27.4c-3.26-2.17-6.55-4.3-9.91-6.34a308,308,0,0,1-22.82,25.38c-30.19,30.19-55.2,44.76-78.29,54.51q5.46-.53,10.92-1.13C443.66,160,450.92,159,458.15,157.87Z"/><path class="cls-16" d="M297.46,231.16c-1.47,1.42-2.95,2.86-4.45,4.36C251.5,277,241.16,307.09,230.2,338.91c-10.86,31.53-22.09,64.12-65.27,107.31-6.24,6.24-12.24,11.75-18.06,16.75,2.06,3.38,4.21,6.71,6.41,10,6.4-5.37,13-11.4,20-18.38C214.8,413.08,225.15,383,236.11,351.2c10.85-31.53,22.08-64.13,65.27-107.32,6.72-6.72,13.18-12.66,19.43-18a149,149,0,0,0-17,3.46C301.67,229.94,299.56,230.54,297.46,231.16Z"/><path class="cls-16" d="M499.22,230.89l-.47-.06c-6.32-.86-12.66-1.62-19-2.16l-1.76-.13c-6.41,2.43-12.71,4.6-19,6.75-13.62,4.69-26.92,9.28-40.93,16.24-.07.44-.14.88-.2,1.32a99,99,0,0,0-1,11.77c19.5-11.38,37.12-17.46,54.4-23.42C480.65,238,489.84,234.81,499.22,230.89Z"/><path class="cls-16" d="M364,290c-2.75,2.57-5.54,5.26-8.4,8.12-41.5,41.51-51.85,71.56-62.81,103.38C282,433,270.72,465.63,227.53,508.82A313.1,313.1,0,0,1,204.25,530q4.58,3.87,9.32,7.55c7.09-5.82,14.5-12.52,22.32-20.34,41.51-41.51,51.86-71.56,62.82-103.39,10.64-30.93,21.67-62.89,62.86-104.87.24-1.7.48-3.41.71-5.12C362.9,299.21,363.5,294.61,364,290Z"/><path class="cls-16" d="M574.7,178.37a287.12,287.12,0,0,0,26.46-30.1q-3.7-4.71-7.6-9.27a295.68,295.68,0,0,1-27.22,31,297.62,297.62,0,0,1-30.51,26.86l6.91,9.36A282.29,282.29,0,0,0,574.7,178.37Z"/><path class="cls-16" d="M559.05,162.73a283.51,283.51,0,0,0,27.55-31.6c-2.66-2.88-5.37-5.73-8.16-8.5a295.15,295.15,0,0,1-27.75,31.73,302.11,302.11,0,0,1-27.9,24.84l7,9.4A289.09,289.09,0,0,0,559.05,162.73Z"/><path class="cls-16" d="M366.16,259A299.37,299.37,0,0,0,340,282.47C298.45,324,288.1,354,277.15,385.86c-10.86,31.52-22.09,64.12-65.27,107.31a309,309,0,0,1-24,21.77q4.18,4.17,8.56,8.15a302.83,302.83,0,0,0,23.85-21.55C261.75,460,272.1,430,283.06,398.15c10.85-31.53,22.08-64.13,65.27-107.32,5.87-5.87,11.54-11.13,17.05-15.9.11-1.53.23-3.05.34-4.57C366,266.58,366,262.79,366.16,259Z"/><path class="cls-16" d="M438.25,229.3c-2.6.67-10.69,3.63-15,8.49,9.08-4,17.85-7.18,26.49-10.19A60.18,60.18,0,0,0,438.25,229.3Z"/><path class="cls-16" d="M543.41,147.07A283.45,283.45,0,0,0,571,115.48q-4.29-3.95-8.74-7.7A298,298,0,0,1,535,138.71a307.26,307.26,0,0,1-25.31,22.79l7,9.44A296.67,296.67,0,0,0,543.41,147.07Z"/><path class="cls-16" d="M363.14,234.08c-12,8.15-24.73,18.65-38.82,32.74-41.51,41.51-51.86,71.57-62.82,103.39-10.86,31.53-22.08,64.13-65.27,107.32a314.09,314.09,0,0,1-23.33,21.2c2.54,3,5.13,5.89,7.8,8.75a302,302,0,0,0,23.89-21.59c41.51-41.51,51.86-71.57,62.81-103.39,10.86-31.53,22.09-64.13,65.28-107.32a292.94,292.94,0,0,1,33-28.71,51.83,51.83,0,0,0-1.73-10A23.24,23.24,0,0,0,363.14,234.08Z"/><path class="cls-16" d="M223.13,165.63c43.19-43.19,75.8-54.42,107.33-65.28,29.71-10.23,57.9-20,95.3-55-5.1-.79-10.26-1.41-15.46-1.92-35.85,31.6-64.41,41.46-92.14,51-31.82,11-61.88,21.32-103.39,62.83S162.91,228.84,152,260.65c-8.83,25.65-17.91,52-44.23,84.19.5,5.36,1.11,10.69,1.91,16C139.22,327,148.32,300.66,157.86,273,168.71,241.42,179.94,208.82,223.13,165.63Z"/><path class="cls-16" d="M335.06,161.73l4.38.34c13.2-6.23,25.66-10.53,38-14.76,31.83-11,61.89-21.32,103.4-62.83C487,78.3,492.39,72.4,497.29,66.69q-5.62-2.55-11.4-4.86c-4.12,4.64-8.55,9.38-13.45,14.28-43.19,43.2-75.8,54.43-107.33,65.28-15.34,5.29-30.27,10.44-46.27,19,2.08.2,4.17.4,6.26.58C328.42,161.27,331.74,161.48,335.06,161.73Z"/><path class="cls-16" d="M219.52,258.68l-.23.08c-9.41,17-14.82,32.69-20.39,48.85-10.85,31.52-22.08,64.12-65.27,107.31-2.46,2.46-4.87,4.79-7.26,7,1.56,3.89,3.2,7.72,4.93,11.52,3.49-3.2,7-6.54,10.69-10.19,41.51-41.51,51.86-71.57,62.82-103.39,7.16-20.8,14.49-42.07,31.05-66.54-3.81,1.33-7.64,2.62-11.49,3.84C222.76,257.72,221.14,258.2,219.52,258.68Z"/><path class="cls-16" d="M207.48,150c43.19-43.2,75.8-54.43,107.33-65.29,25.76-8.87,50.37-17.36,80.82-42.28-4.09-.18-8.2-.31-12.34-.31-2.2,0-4.38.12-6.57.17C349,62.74,325.45,70.9,302.51,78.8c-31.82,11-61.88,21.31-103.39,62.82S147.26,213.19,136.3,245c-6.94,20.16-14.08,40.78-29.58,64.3-.11,3.2-.25,6.39-.25,9.62,0,3.5.14,7,.27,10.45,19.73-26.51,27.47-48.84,35.47-72.08C153.06,225.78,164.29,193.17,207.48,150Z"/><path class="cls-16" d="M191.83,134.34c43.2-43.2,75.8-54.43,107.33-65.28,18.93-6.53,37.26-12.89,57.72-25.66a274.3,274.3,0,0,0-32,4.94c-13.21,6.24-25.7,10.56-38,14.8-17.31,6-34.11,11.79-52.5,22.5a276.68,276.68,0,0,0-125.9,200.54c8-15.34,13-29.75,18.09-44.52C137.41,210.13,148.64,177.53,191.83,134.34Z"/><path class="cls-16" d="M260.55,155.33a1.21,1.21,0,0,1,1.37-.73c2.1.23,4.2.44,6.31.65,29.36-22.52,53.93-31,77.88-39.25C377.93,105,408,94.69,449.5,53.18c.84-.84,1.59-1.65,2.41-2.48q-6.75-1.73-13.63-3.11c-41.77,40.84-73.65,51.89-104.47,62.5-31.82,11-61.88,21.32-103.4,62.83s-51.85,71.56-62.81,103.39c-10,29-20.38,59-55.7,97.31.94,4.67,2,9.3,3.15,13.88,37.82-39.19,47.9-68.24,58.46-98.9,10.85-31.52,22.08-64.12,65.27-107.31,6.2-6.2,12.17-11.72,18-16.69l3.36-8.21C260.24,156,260.39,155.68,260.55,155.33Z"/><path class="cls-16" d="M246.07,188.57c-41.51,41.51-51.86,71.57-62.82,103.39-10.83,31.45-22.05,64-65,107,1.27,4.22,2.65,8.39,4.11,12.51,1.32-1.28,2.62-2.5,4-3.84,41.51-41.51,51.86-71.57,62.82-103.39,9-26,18.18-52.74,45.36-85.55l13-31.52Z"/><path class="cls-16" d="M301.41,158.67c21.9-13.77,41.32-20.47,60.35-27,31.82-11,61.88-21.31,103.4-62.83,3.73-3.73,7.13-7.34,10.38-10.9-4.07-1.44-8.19-2.8-12.36-4.05-2.06,2.17-4.16,4.36-6.39,6.59-43.2,43.2-75.8,54.43-107.33,65.29-21.45,7.38-42.1,14.51-66,31.07l13.15,1.36Z"/><path class="cls-16" d="M535.8,236.45q-5-.84-10.07-1.65l-7.82-1.2c-15.17,7.67-29.32,12.55-43.25,17.34-18.86,6.5-37.09,12.78-57.46,25.46.13,2.9.29,5.8.56,8.69.13,1.46.26,2.91.4,4.37,25.42-17.66,47.36-25.23,68.8-32.61C503.12,251.28,518.82,245.87,535.8,236.45Z"/><path class="cls-16" d="M358.87,326.85c-31.34,34.95-40.65,61.93-50.42,90.31-10.86,31.52-22.09,64.12-65.27,107.31-7.35,7.36-14.38,13.72-21.16,19.37q4.95,3.57,10.06,6.91c6.23-5.25,12.68-11.13,19.46-17.91,41.51-41.51,51.86-71.57,62.82-103.4C322.77,405,331.41,380,355,349.82q1.21-6.85,2.39-13.72Q358.12,331.48,358.87,326.85Z"/><path class="cls-16" d="M555.71,223.83A277.48,277.48,0,0,0,590.35,194a293.79,293.79,0,0,0,24.2-27.18c-2.25-3.42-4.58-6.77-7-10.08A299.33,299.33,0,0,1,582,185.66a292.13,292.13,0,0,1-33.16,28.83L553,220.1Z"/><path class="cls-16" d="M527.76,470.26c-41.51,41.51-51.86,71.57-62.82,103.39q-1.86,5.43-3.8,10.92,5.78-1.7,11.44-3.63c10.4-30,22.64-61.4,63.54-102.31,43.2-43.19,75.8-54.42,107.33-65.28l.13-.05q2.1-5.76,3.95-11.65c-5.52,2-11,3.92-16.37,5.79C599.34,418.4,569.27,428.75,527.76,470.26Z"/><path class="cls-16" d="M496.46,439c-41.51,41.51-51.86,71.57-62.82,103.4-5.7,16.55-11.55,33.43-22,51.95,4.4-.44,8.77-1,13.11-1.66,6.17-12.94,10.47-25.34,14.83-38,10.85-31.53,22.08-64.13,65.27-107.32s75.8-54.42,107.34-65.28c14.67-5.06,29-10,44.22-17.94q1.13-6.86,1.91-13.83c-21.12,13-40,19.5-58.44,25.86C568,387.1,538,397.45,496.46,439Z"/><path class="cls-16" d="M512.11,454.62C470.6,496.13,460.25,526.18,449.29,558c-3.64,10.59-7.36,21.31-12.28,32.49,4-.79,8-1.69,12-2.66,2.18-5.84,4.19-11.66,6.21-17.53,10.86-31.53,22.09-64.13,65.27-107.32s75.8-54.43,107.33-65.28c7.8-2.69,15.48-5.34,23.26-8.42q1.62-6.21,3-12.53c-13.39,6.36-26,10.75-38.5,15C583.68,402.75,553.62,413.1,512.11,454.62Z"/><path class="cls-16" d="M512.67,563.65q10-5.32,19.56-11.44c8.68-13.06,19.91-27,35.19-42.28C584.37,493,599.67,481,613.93,472q6.11-9.18,11.48-18.87c-19.85,9.35-40.95,23.06-66.35,48.46C535.47,525.15,522,545,512.67,563.65Z"/><path class="cls-16" d="M485.14,576.32q6.53-2.58,12.88-5.48c9.74-22.61,24.32-47.13,53.75-76.56,31.46-31.46,57.3-45.94,81.2-55.7q3-6.24,5.68-12.66c-28.91,10.14-57.28,22-95.24,60C507.58,521.75,495,549.05,485.14,576.32Z"/><path class="cls-16" d="M350.45,373.92c-13.27,20.94-19.71,39.59-26.35,58.88-10.86,31.53-22.08,64.13-65.27,107.32-6.09,6.09-11.94,11.48-17.63,16.38,3.57,2.14,7.19,4.22,10.87,6.21,4.88-4.3,9.91-9,15.12-14.23C308.7,507,319.05,476.92,330,445.1c3.82-11.12,7.7-22.37,13-34.17Q345.29,400,347.48,389,349,381.48,350.45,373.92Z"/><path class="cls-16" d="M568.64,241.4A273.92,273.92,0,0,0,606,209.68a305.71,305.71,0,0,0,20.67-22.74c-2-3.7-4.11-7.33-6.28-10.93a306.28,306.28,0,0,1-22.75,25.3,287,287,0,0,1-35.85,30.78q3.13,4.26,6.28,8.53A7.83,7.83,0,0,1,568.64,241.4Z"/><path class="cls-16" d="M551.34,239.14c-22.18,14.06-41.81,20.83-61,27.45-22.92,7.9-44.93,15.48-71,34.61q.5,4.16,1,8.31c.24,1.68.49,3.36.72,5.05,31-24.65,56.56-33.48,81.49-42.06,21.15-7.29,41.53-14.32,65-30.39-.56-.08-1.12-.22-1.66-.32Q558.65,240.44,551.34,239.14Z"/><path class="cls-16" d="M563.76,528.73a277.57,277.57,0,0,0,26.66-26.25c-5.06,4.44-10.29,9.31-15.71,14.73C570.76,521.16,567.17,525,563.76,528.73Z"/><path class="cls-16" d="M329.06,523.39c-9.12,14.69-21.39,30.48-38.93,48-2.07,2.07-4.09,4-6.11,5.92q6.15,2.35,12.42,4.43c.69-.68,1.36-1.29,2.05-2,25.17-25.17,38.88-46.13,48.22-65.83L332,521.84Z"/><path class="cls-16" d="M533.91,303.8c31.82-11,61.88-21.31,103.39-62.83,3.11-3.1,6-6.13,8.75-9.11q-2.1-6.36-4.51-12.6c-3.89,4.35-8,8.78-12.6,13.35-43.2,43.19-75.8,54.42-107.33,65.28C492,308.08,464,317.75,426.87,352.36q1.15,7.09,2.3,14.17C471.08,325.46,503,314.44,533.91,303.8Z"/><path class="cls-16" d="M584.21,360.49c-31.83,11-61.89,21.31-103.4,62.83S429,494.88,418,526.7c-7.4,21.49-15,43.49-32.75,69q7-.06,13.91-.44c12.18-19.88,18.38-37.78,24.74-56.26,10.86-31.53,22.09-64.13,65.28-107.32S565,377.26,596.5,366.4c20.52-7.07,40.33-13.94,62.93-29q.48-7.23.58-14.57C631.57,344.15,607.59,352.44,584.21,360.49Z"/><path class="cls-16" d="M307.6,585.18q6.54,1.86,13.19,3.39c33.15-35,44.1-61.93,53.71-89.44l-13.12,7C351.81,529.46,337.66,554.68,307.6,585.18Z"/><path class="cls-16" d="M442.23,384.73c43.19-43.2,75.79-54.42,107.32-65.28,31.83-11,61.89-21.31,103.4-62.83l0,0q-1.56-6.78-3.45-13.44c-1.62,1.69-3.21,3.37-4.93,5.1-43.2,43.19-75.8,54.42-107.33,65.28-31.83,11-61.89,21.31-103.4,62.83-.91.91-1.78,1.8-2.66,2.7.78,4.89,1.57,9.78,2.34,14.67C436.29,390.79,439.17,387.79,442.23,384.73Z"/><path class="cls-16" d="M424.91,340.22c36.42-32.45,65.31-42.42,93.34-52.07,31.83-11,61.88-21.31,103.4-62.83,5.78-5.78,10.9-11.31,15.55-16.68q-2.58-6-5.44-11.78c-5.44,6.46-11.5,13.13-18.47,20.1-43.2,43.2-75.8,54.42-107.33,65.28-26.41,9.09-51.61,17.79-83.14,44.2.16,1.11.31,2.22.47,3.32C423.81,333.25,424.36,336.74,424.91,340.22Z"/><path class="cls-16" d="M328.54,478.51c-9.74,22.8-24.33,47.52-54.07,77.26-4.32,4.32-8.5,8.24-12.62,12,3.84,1.88,7.74,3.66,11.67,5.36,3.05-2.83,6.14-5.76,9.32-8.94,16.73-16.73,28.39-31.6,37.07-45.47,1.17-5.47,2.32-10.94,3.5-16.4Z"/><path class="cls-16" d="M431.94,468.48q-8.42,4.45-16.81,8.94c-5.12,11.38-8.92,22.4-12.79,33.63-8.77,25.48-17.8,51.65-43.71,83.54q7,.63,14.11.89c19.76-26.54,27.51-48.87,35.52-72.13C414.25,505.92,420.38,488.17,431.94,468.48Z"/><path class="cls-16" d="M441,452.2c.05.66.09,1.33.14,2A283.51,283.51,0,0,1,473.52,416c43.2-43.19,75.8-54.42,107.33-65.28,25.25-8.7,49.41-17.07,79-40.86q-.24-7.35-.85-14.61c-35.07,30.44-63.18,40.16-90.47,49.56-31.83,11-61.88,21.31-103.4,62.83a290.33,290.33,0,0,0-25.7,29.08c.24,2,.49,4.06.7,6.08C440.49,446,440.71,449.07,441,452.2Z"/><path class="cls-16" d="M457.88,400.38c43.19-43.19,75.79-54.42,107.33-65.28,28.95-10,56.47-19.52,92.46-52.41q-.93-7.14-2.22-14.14c-40.82,39.31-72.2,50.19-102.55,60.64-31.82,11-61.88,21.32-103.39,62.83-5.11,5.11-9.74,10-14,14.83.76,5.18,1.53,10.36,2.2,15.56C443.58,415.36,450.22,408,457.88,400.38Z"/><path class="cls-16" d="M386.7,495.4C376.84,524,366.6,553.53,332.53,591q6.86,1.28,13.82,2.2c28-32.64,36.93-58.45,46.25-85.52,2.56-7.43,5.15-14.93,8.16-22.6L387.87,492Z"/><path class="cls-16" d="M568.8,242.12a1.35,1.35,0,0,0-.16-.72l-1,.71A4.73,4.73,0,0,0,568.8,242.12Z"/></svg>