<svg id="Laag_1" data-name="Laag 1" xmlns="http://www.w3.org/2000/svg" viewBox="0 0 500 500"><defs><style>.cls-1{opacity:0.4;}.cls-2{fill:#c83d3d;}</style></defs><title>LogoTekengebied 1 kopie 2</title><g class="cls-1"><path class="cls-2" d="M180.78,287.48C207,261.29,228.2,256,248.73,250.82c20.71-5.2,40.27-10.1,65.38-35.22s30-44.67,35.22-65.38c4.75-19,9.7-38.54,31.07-62.06-2-1.52-4-3-6.06-4.43-19.6,21.94-24.14,39.82-28.86,58.63-5.14,20.53-10.47,41.76-36.66,67.95S261.4,241.82,240.87,247c-20.71,5.2-40.27,10.1-65.38,35.22s-30,44.67-35.22,65.39c-4.22,16.81-8.57,34.09-24.38,54.18,1.81,1.69,3.66,3.33,5.53,5,14.49-18.68,18.51-34.62,22.69-51.29C149.26,334.9,154.59,313.68,180.78,287.48Z"/><path class="cls-2" d="M171.58,278.28c26.2-26.19,47.42-31.51,67.95-36.66,20.71-5.19,40.28-10.1,65.38-35.21s30-44.68,35.22-65.39c4.65-18.53,9.5-37.65,29.65-60.46-2.1-1.39-4.22-2.76-6.37-4.08-18.17,21.06-22.54,38.43-27.13,56.68-5.14,20.53-10.47,41.76-36.66,68s-47.42,31.52-68,36.66C211,243,191.4,247.88,166.29,273s-30,44.68-35.22,65.39c-4.22,16.81-8.57,34.1-24.4,54.2,1.72,1.82,3.45,3.62,5.22,5.37,14.78-18.86,18.81-34.91,23-51.72C140.07,325.71,145.39,304.48,171.58,278.28Z"/><path class="cls-2" d="M162.39,269.08c26.19-26.19,47.42-31.51,67.94-36.66,20.71-5.19,40.28-10.1,65.39-35.21s30-44.68,35.21-65.39c4.5-17.91,9.13-36.36,27.65-58.18-2.18-1.26-4.38-2.49-6.6-3.67-16.28,19.85-20.51,36.52-24.89,54-5.15,20.52-10.48,41.75-36.67,67.95S243,223.43,222.48,228.58c-20.71,5.19-40.28,10.1-65.39,35.21s-30,44.68-35.22,65.39C117.7,345.83,113.4,363,97.94,382.8c1.61,1.93,3.27,3.83,4.94,5.7,14.62-18.75,18.64-34.74,22.84-51.46C130.87,316.51,136.19,295.28,162.39,269.08Z"/><path class="cls-2" d="M153.19,259.89c26.19-26.19,47.42-31.52,67.95-36.67,20.71-5.19,40.27-10.1,65.38-35.21s30-44.67,35.22-65.39C326,105.53,330.48,87.93,347,67.4c-2.28-1.12-4.58-2.19-6.9-3.23C326,82.55,322,98.3,317.89,114.77c-5.15,20.53-10.48,41.75-36.67,68s-47.41,31.51-67.94,36.66c-20.71,5.19-40.28,10.1-65.38,35.21s-30,44.68-35.22,65.39c-4.09,16.27-8.32,33-22.91,52.25,1.5,2.08,3,4.11,4.63,6.12,14-18.34,18-34.07,22.12-50.51C121.67,307.31,127,286.08,153.19,259.89Z"/><path class="cls-2" d="M144,250.69c26.19-26.19,47.42-31.52,67.95-36.66,20.71-5.2,40.27-10.11,65.38-35.22s30-44.67,35.22-65.38c4-16.07,8.21-32.57,22.37-51.54q-3.5-1.45-7.07-2.78c-11.64,16.63-15.33,31.24-19.15,46.46-5.15,20.53-10.47,41.76-36.66,68S224.61,205,204.08,210.18c-20.71,5.19-40.27,10.1-65.38,35.21s-30,44.68-35.22,65.4c-3.94,15.67-8,31.76-21.36,50.16,1.4,2.22,2.82,4.42,4.3,6.58,13-17.65,16.9-32.94,20.9-48.89C112.47,298.11,117.8,276.88,144,250.69Z"/><path class="cls-2" d="M208.38,315.07c26.19-26.19,47.42-31.51,67.94-36.66,20.71-5.19,40.28-10.1,65.39-35.21s30-44.68,35.21-65.39c4.84-19.27,9.83-39.17,32.11-63.21-1.67-1.86-3.39-3.68-5.13-5.48-21.32,23-25.94,41.39-30.82,60.84-5.15,20.52-10.48,41.75-36.67,67.95S289,269.42,268.47,274.57c-20.71,5.19-40.28,10.1-65.39,35.21s-30,44.68-35.22,65.39c-3.93,15.68-8,31.78-21.37,50.19,2.07,1.31,4.17,2.57,6.29,3.81,11.46-16.5,15.13-31,18.93-46.14C176.86,362.5,182.18,341.27,208.38,315.07Z"/><path class="cls-2" d="M190,296.68c26.19-26.19,47.42-31.52,68-36.66,20.71-5.2,40.27-10.11,65.38-35.22s30-44.67,35.22-65.38c4.82-19.23,9.8-39.08,31.94-63-1.88-1.64-3.78-3.24-5.72-4.81-20.65,22.57-25.25,40.79-30.07,60-5.15,20.53-10.47,41.76-36.66,67.95S270.6,251,250.07,256.17c-20.71,5.19-40.27,10.1-65.38,35.21s-30,44.68-35.22,65.4c-4.18,16.63-8.47,33.72-23.87,53.54,1.89,1.56,3.84,3.06,5.8,4.55,13.84-18.22,17.81-33.88,21.91-50.24C158.46,344.1,163.79,322.87,190,296.68Z"/><path class="cls-2" d="M226.77,333.47c26.2-26.19,47.42-31.51,68-36.66,20.71-5.2,40.27-10.1,65.38-35.22s30-44.67,35.22-65.38c4.67-18.64,9.55-37.88,30-60.87-1.44-2.11-2.91-4.2-4.44-6.25-20.08,22.23-24.65,40.27-29.42,59.26-5.14,20.53-10.47,41.76-36.66,68S307.39,287.81,286.86,293c-20.71,5.2-40.27,10.1-65.38,35.22s-30,44.67-35.22,65.39c-3.5,13.94-7.1,28.2-17.23,44.13,2.18,1,4.36,2,6.59,3,8.08-13.73,11.23-26.26,14.48-39.25C195.25,380.89,200.58,359.67,226.77,333.47Z"/><path class="cls-2" d="M236,342.67c26.19-26.19,47.42-31.52,68-36.66,20.71-5.2,40.27-10.11,65.38-35.22s30-44.67,35.22-65.38c4.52-18.06,9.21-36.66,28.09-58.7-1.33-2.24-2.72-4.43-4.13-6.61-18.73,21.4-23.17,39-27.81,57.45-5.15,20.53-10.47,41.76-36.66,67.95S316.59,297,296.06,302.16c-20.71,5.19-40.27,10.1-65.38,35.21s-30,44.68-35.22,65.4c-3.19,12.71-6.46,25.69-14.7,40,2.19.86,4.39,1.7,6.62,2.49,6.22-11.94,9-23.09,11.92-34.6C204.45,390.09,209.78,368.86,236,342.67Z"/><path class="cls-2" d="M199.18,305.88c26.19-26.19,47.42-31.52,67.95-36.66,20.71-5.2,40.27-10.11,65.38-35.22s30-44.67,35.22-65.39c4.84-19.33,9.87-39.29,32.31-63.43-1.78-1.75-3.58-3.48-5.42-5.16-21.25,22.91-25.87,41.32-30.74,60.74-5.15,20.53-10.48,41.75-36.67,68s-47.41,31.51-67.94,36.66c-20.71,5.19-40.28,10.1-65.38,35.21s-30,44.68-35.22,65.39c-4.08,16.25-8.31,32.94-22.85,52.17,2,1.44,4,2.88,6,4.25,12.83-17.52,16.67-32.71,20.65-48.56C167.66,353.3,173,332.07,199.18,305.88Z"/><path class="cls-2" d="M245.17,351.87c26.19-26.19,47.42-31.52,68-36.66C333.83,310,353.39,305.1,378.5,280s30-44.67,35.22-65.39c4.31-17.22,8.81-34.94,25.59-55.66-1.22-2.41-2.47-4.79-3.77-7.14-16.94,20.28-21.22,37.2-25.67,54.95-5.15,20.53-10.48,41.75-36.67,67.95s-47.41,31.51-67.94,36.66c-20.71,5.19-40.28,10.1-65.38,35.21s-30,44.68-35.22,65.39c-2.82,11.24-5.72,22.69-12,35,2.17.7,4.36,1.35,6.57,2,4.45-9.93,6.86-19.43,9.3-29.17C213.65,399.29,219,378.06,245.17,351.87Z"/><path class="cls-2" d="M217.58,324.27c26.19-26.19,47.41-31.51,67.94-36.66,20.71-5.19,40.28-10.1,65.38-35.21s30-44.68,35.22-65.39c4.78-19,9.73-38.69,31.33-62.34-1.57-2-3.15-3.94-4.78-5.87-20.94,22.74-25.55,41.05-30.4,60.35-5.14,20.53-10.47,41.76-36.66,67.95s-47.42,31.52-67.95,36.66C257,289,237.39,293.87,212.28,319s-30,44.68-35.22,65.39c-3.74,14.93-7.62,30.23-19.51,47.54,2.14,1.17,4.33,2.28,6.52,3.37,9.85-15.24,13.28-28.88,16.84-43.06C186.06,371.7,191.38,350.47,217.58,324.27Z"/><path class="cls-2" d="M194.54,96C212.38,78.19,220,63.15,224.8,48.51c-2.42.37-4.81.83-7.2,1.28-5.2,12.55-13.34,25.93-28.36,40.95-26.19,26.19-47.41,31.51-67.94,36.66-12.84,3.22-25.25,6.34-38.8,14.23q-4.6,7.23-8.61,14.88c20.55-16.52,38.16-21,55.26-25.27C149.87,126.05,169.43,121.14,194.54,96Z"/><path class="cls-2" d="M185.34,86.83C198.43,73.75,206,62.17,211,51.15c-3,.67-6,1.39-8.88,2.18a135,135,0,0,1-22.09,28.21c-26.2,26.19-47.42,31.51-68,36.66-5.34,1.34-10.6,2.66-15.9,4.32-2.53,3.12-5,6.34-7.3,9.61,10.85-5,21-7.57,31.06-10.08C140.67,116.85,160.23,111.94,185.34,86.83Z"/><path class="cls-2" d="M170.42,64.83a205.45,205.45,0,0,0-52,34.19c14.95-4.77,30.26-12.34,48.5-30.58C168.16,67.22,169.3,66,170.42,64.83Z"/><path class="cls-2" d="M138.35,140.44c20.71-5.19,40.28-10.1,65.39-35.21,22.18-22.18,28.59-40,33.37-58.18-2.1.19-4.19.44-6.27.69-4.9,15.81-12.82,32.62-32.4,52.19C172.25,126.12,151,131.45,130.5,136.6c-20,5-38.89,9.8-62.73,32.65q-3.93,9-7,18.39c2.87-3.43,6-6.93,9.66-10.54C96.6,150.91,117.83,145.59,138.35,140.44Z"/><path class="cls-2" d="M176.14,77.63a136.11,136.11,0,0,0,18.21-22.06c-4.17,1.31-8.27,2.79-12.32,4.36a157.37,157.37,0,0,1-11.18,12.41c-23.25,23.25-42.58,30.05-61,34.88q-3.7,3.77-7.22,7.71c2.73-.73,5.43-1.41,8.12-2.08C131.47,107.65,151,102.75,176.14,77.63Z"/><path class="cls-2" d="M98,204.7C124.19,178.51,145.42,173.18,166,168c20.71-5.2,40.27-10.11,65.38-35.22s30-44.67,35.22-65.38c1.68-6.73,3.41-13.54,5.86-20.57-2.07-.17-4.13-.35-6.21-.46-1.28,4.38-2.39,8.75-3.5,13.17-5.15,20.53-10.47,41.76-36.66,68S178.62,159,158.09,164.19c-20.71,5.19-40.27,10.1-65.38,35.21s-30,44.68-35.22,65.4c-1.41,5.6-2.84,11.26-4.7,17.05.63,4.22,1.38,8.38,2.26,12.51a219.72,219.72,0,0,0,6.28-21.71C66.48,252.12,71.81,230.89,98,204.7Z"/><path class="cls-2" d="M107.2,213.9c26.19-26.19,47.42-31.52,67.94-36.67,20.72-5.19,40.28-10.1,65.39-35.21s30-44.67,35.22-65.39c2.3-9.21,4.67-18.56,8.92-28.44-2.19-.3-4.38-.6-6.59-.84a218.57,218.57,0,0,0-6.18,21.43c-5.15,20.53-10.48,41.75-36.67,67.95s-47.41,31.51-67.94,36.66c-20.71,5.19-40.28,10.1-65.38,35.21s-30,44.68-35.23,65.39c-2.4,9.58-4.87,19.33-9.45,29.65q1.31,5,2.85,9.87c5.21-10.84,7.8-21.11,10.45-31.66C75.68,261.32,81,240.09,107.2,213.9Z"/><path class="cls-2" d="M116.4,223.09c26.19-26.19,47.42-31.51,67.94-36.66,20.71-5.19,40.28-10.1,65.39-35.21s30-44.68,35.21-65.39c2.86-11.38,5.78-23,12.28-35.53-2.3-.47-4.62-.85-6.94-1.24-4.37,9.84-6.76,19.26-9.18,28.92-5.15,20.52-10.48,41.75-36.67,68S197,177.44,176.49,182.59c-20.71,5.19-40.28,10.1-65.39,35.21s-30,44.68-35.22,65.39c-3,12-6.11,24.23-13.36,37.55,1,2.88,2.14,5.73,3.29,8.55,7.65-13.34,10.74-25.58,13.92-38.24C84.88,270.52,90.2,249.29,116.4,223.09Z"/><path class="cls-2" d="M125.59,232.29c26.2-26.19,47.42-31.51,67.95-36.66,20.71-5.19,40.28-10.1,65.38-35.21s30-44.68,35.22-65.39c3.32-13.22,6.74-26.74,15.73-41.68-2.36-.64-4.74-1.23-7.12-1.78-6.6,12.32-9.49,23.78-12.46,35.6-5.14,20.53-10.47,41.76-36.66,68s-47.42,31.52-67.95,36.66C165,197,145.41,201.89,120.3,227s-30,44.68-35.22,65.39c-3.42,13.64-7,27.59-16.6,43.09,1.17,2.61,2.38,5.19,3.66,7.74,9.81-15.21,13.23-28.83,16.79-43C94.08,279.72,99.4,258.49,125.59,232.29Z"/><path class="cls-2" d="M147.55,149.64c20.71-5.19,40.28-10.1,65.38-35.21S243,69.75,248.15,49c.23-.9.45-1.8.68-2.7q-3,.09-5.9.27c-4.87,18.87-11.4,38.63-35.29,62.52-26.19,26.19-47.42,31.52-67.95,36.66C119,151,99.42,155.9,74.31,181a137.12,137.12,0,0,0-17.8,21.47,202.89,202.89,0,0,0-4.14,22.19C57.6,212.86,65.61,200.3,79.6,186.3,105.8,160.11,127,154.79,147.55,149.64Z"/><path class="cls-2" d="M88.8,195.5c26.2-26.19,47.42-31.51,68-36.66,20.71-5.2,40.27-10.1,65.38-35.22s30-44.67,35.22-65.38c1-4,2-7.94,3.14-12-1.5,0-3-.12-4.51-.12-.48,0-.94,0-1.42,0-.35,1.39-.71,2.79-1.06,4.19-5.15,20.53-10.47,41.76-36.66,67.95s-47.42,31.51-68,36.66c-20.71,5.2-40.27,10.1-65.38,35.22-21.34,21.34-28.09,38.67-32.82,56.11,0,1.75-.13,3.49-.13,5.26,0,5.24.26,10.42.64,15.56l.93-3.69C57.28,242.92,62.61,221.69,88.8,195.5Z"/><path class="cls-2" d="M134.79,241.49c26.2-26.19,47.42-31.51,68-36.66,20.71-5.2,40.27-10.1,65.38-35.22s30-44.67,35.22-65.38c3.7-14.77,7.54-29.92,19.14-47-2.36-.8-4.73-1.59-7.13-2.32-9.08,14.61-12.43,27.79-15.86,41.47-5.14,20.53-10.47,41.76-36.66,67.95S215.41,195.83,194.88,201c-20.71,5.2-40.27,10.1-65.38,35.22s-30,44.67-35.22,65.39c-3.72,14.83-7.58,30-19.29,47.21,1.29,2.39,2.64,4.73,4,7.06,11.61-16.62,15.3-31.21,19.11-46.42C103.27,288.91,108.6,267.69,134.79,241.49Z"/><path class="cls-2" d="M393.29,404.33C374,409.24,355.37,415,331.86,438.55c-2.11,2.11-4,4.16-5.86,6.19q9.45-3.42,18.44-7.73c13.42-11.9,25.57-18.53,37.06-22.88C385.55,411,389.49,407.75,393.29,404.33Z"/><path class="cls-2" d="M272.76,379.46C299,353.27,320.18,348,340.71,342.8c20.71-5.2,40.27-10.1,65.38-35.21s30-44.68,35.22-65.39c3.13-12.48,6.35-25.23,14.26-39.19q-1.17-4.84-2.58-9.61c-8.83,14.4-12.14,27.43-15.53,40.94-5.14,20.53-10.47,41.76-36.66,68S353.38,333.8,332.85,339c-20.71,5.2-40.27,10.1-65.38,35.22s-30,44.67-35.22,65.39c-1.28,5.1-2.57,10.25-4.19,15.5,1.95.27,3.9.54,5.88.75.74-2.79,1.45-5.58,2.15-8.4C241.24,426.88,246.57,405.66,272.76,379.46Z"/><path class="cls-2" d="M386.7,388.79c10.14-2.54,20-5,30.39-9.85,3.62-4.58,7.07-9.3,10.3-14.19-17.72,12.44-33.33,16.38-48.55,20.19-20.71,5.2-40.27,10.1-65.38,35.22-12.53,12.52-20,23.67-25,34.27,2.91-.47,5.81-1,8.69-1.55a135.86,135.86,0,0,1,21.64-27.43C345,399.26,366.17,393.94,386.7,388.79Z"/><path class="cls-2" d="M263.57,370.26c26.19-26.19,47.41-31.51,67.94-36.66,20.71-5.19,40.28-10.1,65.38-35.21s30-44.68,35.22-65.39c3.66-14.6,7.45-29.56,18.74-46.4-1-2.86-2-5.7-3-8.5-12,16.88-15.68,31.65-19.55,47-5.14,20.53-10.47,41.76-36.66,67.95s-47.42,31.52-68,36.66c-20.71,5.2-40.27,10.11-65.38,35.22s-30,44.68-35.22,65.39a213.11,213.11,0,0,1-6.66,22.79c2,.4,4.09.76,6.14,1.1,1.68-5.35,3-10.65,4.37-16C232.05,417.69,237.37,396.46,263.57,370.26Z"/><path class="cls-2" d="M282,388.66c26.19-26.19,47.42-31.52,68-36.66,20.71-5.2,40.27-10.1,65.38-35.22s30-44.67,35.22-65.38c2.3-9.18,4.65-18.51,8.87-28.35-.55-4-1.19-7.9-2-11.79-5.41,11.07-8.06,21.52-10.76,32.28-5.15,20.53-10.47,41.76-36.66,68S362.58,343,342.05,348.15c-20.71,5.19-40.27,10.1-65.38,35.21s-30,44.68-35.22,65.4c-.63,2.49-1.26,5-1.93,7.53,1.91.15,3.82.33,5.74.43l0-.11C250.44,436.08,255.77,414.85,282,388.66Z"/><path class="cls-2" d="M395.9,398l5.59-1.42c2.78-2.8,5.46-5.69,8.07-8.64A221.84,221.84,0,0,1,388,394.14c-20.71,5.19-40.27,10.1-65.38,35.21a137.1,137.1,0,0,0-18,21.8c3.81-.92,7.58-1.93,11.31-3.07a155.83,155.83,0,0,1,12-13.43C354.14,408.46,375.37,403.13,395.9,398Z"/><path class="cls-2" d="M359.11,361.2c20.71-5.2,40.27-10.11,65.38-35.22s30-44.67,35.22-65.39q.8-3.16,1.62-6.38c0-.88.07-1.75.07-2.63,0-5.51-.28-11-.71-16.34-1.89,5.84-3.36,11.62-4.83,17.5-5.15,20.53-10.48,41.75-36.67,67.95s-47.41,31.51-67.94,36.66c-20.71,5.19-40.28,10.1-65.38,35.21-24.68,24.68-29.85,44-35,64.31,1.69,0,3.36.13,5.06.13l.79,0c4.82-17.85,11.93-36.66,34.39-59.12C317.35,371.67,338.58,366.34,359.11,361.2Z"/><path class="cls-2" d="M377.5,379.59c18.68-4.68,36.43-9.19,58.14-28.42a204.61,204.61,0,0,0,10.1-20.86c-2.48,2.87-5.16,5.78-8.15,8.77-26.19,26.19-47.42,31.52-67.95,36.66-20.71,5.2-40.27,10.11-65.38,35.22-16.88,16.88-24.61,31.25-29.46,45.15,2.42-.22,4.82-.51,7.22-.81,5.22-12,13.28-24.79,27.54-39.05C335.75,390.06,357,384.74,377.5,379.59Z"/><path class="cls-2" d="M254.37,361.06c26.19-26.19,47.42-31.51,67.94-36.66,20.71-5.19,40.28-10.1,65.39-35.21s30-44.68,35.21-65.39c4-16.12,8.25-32.68,22.53-51.73-1.1-2.6-2.26-5.16-3.46-7.7-14.68,18.81-18.71,34.82-22.91,51.58-5.15,20.52-10.48,41.75-36.67,67.95S335,315.41,314.46,320.56c-20.71,5.19-40.28,10.1-65.39,35.21s-30,44.68-35.22,65.39c-2.38,9.49-4.82,19.13-9.32,29.34,2.12.55,4.28,1,6.43,1.49a205.13,205.13,0,0,0,6.74-23C222.85,408.49,228.17,387.26,254.37,361.06Z"/><path class="cls-2" d="M368.3,370.39c20.71-5.19,40.28-10.1,65.39-35.21a136.64,136.64,0,0,0,18.46-22.46A204.28,204.28,0,0,0,459,283c-5.05,14.27-13.22,29.46-30.61,46.86C402.2,356.08,381,361.4,360.45,366.55c-20.71,5.19-40.28,10.1-65.39,35.21-20.92,20.92-27.81,38-32.53,55.07,2.11-.06,4.21-.14,6.3-.27,5-15,13.05-31,31.53-49.51C326.55,380.86,347.78,375.54,368.3,370.39Z"/></g></svg>