<svg id="Laag_1" data-name="Laag 1" xmlns="http://www.w3.org/2000/svg" viewBox="0 0 1900 800"><defs><style>.cls-1{fill:#c83e3d;}.cls-2{fill:#c83c3d;}</style></defs><title>1Tekengebied 1 kopie 10</title><path class="cls-1" d="M583.45,273.13l12.62,30.21a643.72,643.72,0,0,0,53.13-47.73,278.11,278.11,0,0,0-18.33-26.34c-1.1,1.11-2.2,2.23-3.32,3.34C612.47,247.69,597.79,261.11,583.45,273.13Z"/><path class="cls-1" d="M544.61,302.94a467,467,0,0,1-96.7,52.12c1.3,8.58,2.69,17.53,4.13,26.73,40.87-13.6,82.55-32.65,128-66.11C569.86,311.54,557.59,306.93,544.61,302.94Z"/><path class="cls-1" d="M376.08,403q.93-5.79,1.83-11.5,1.15-7.28,2.25-14.34c-13.18,3.58-26.23,6.86-39.22,10.11-64.13,16.09-125.65,31.52-195.74,80.5a275.51,275.51,0,0,0,9.87,31.17c80.71-60.74,150.77-78.33,219-95.44Z"/><path class="cls-1" d="M561.21,220,574,250.63c12-10.38,24.37-21.82,37-34.48q2.32-2.33,4.59-4.64a276.69,276.69,0,0,0-22.81-21.84c-1.36,1.38-2.72,2.76-4.11,4.15Q574.75,207.8,561.21,220Z"/><path class="cls-1" d="M445.33,331.13a433.91,433.91,0,0,0,68.89-35.73C478.47,289,445.83,293.51,445.33,331.13Z"/><path class="cls-1" d="M384,351.94q.59-3.87,1.14-7.62a72.21,72.21,0,0,0,.56-19.45c-28.53,9.78-56.21,16.72-83.59,23.59C247.5,362.16,194.75,375.39,137,409.3a279,279,0,0,0,3.19,33.84c70.8-47.27,133.69-63.06,195.1-78.45C351.64,360.58,367.83,356.52,384,351.94Z"/><path class="cls-1" d="M527.85,218.09c14.38-12,29.16-25.47,44.43-40.74l2.13-2.15a275.54,275.54,0,0,0-27.36-17.31c-26.57,26.28-51.93,47.48-76.33,64.83C493.54,221.47,513.05,219.7,527.85,218.09Z"/><path class="cls-1" d="M376,303.69c-12.45-11.95-34.81-12.55-58.56-8.32-14,4.06-27.76,7.65-41.47,11.12a457.51,457.51,0,0,0-50.55,20.8l3.7-8.85c-28.91,7.71-57.7,16.55-87.41,29.74a274.89,274.89,0,0,0-4.3,34.34c56.47-30.89,108.3-43.89,159.11-56.63C323.16,319.2,349.38,312.61,376,303.69Z"/><path class="cls-1" d="M415.74,224.37c3.51,0,7-.05,10.4-.1C457.25,205.65,489.83,181,525,146.92a273.6,273.6,0,0,0-33.07-12.14c-44.7,41.54-86,68.9-125.18,88.26C381.85,223.78,398.3,224.29,415.74,224.37Z"/><path class="cls-1" d="M251.88,263.91c-9.16,2.39-18.26,4.67-27.34,6.95-21.54,5.4-42.79,10.74-64.17,17.29a272.79,272.79,0,0,0-11.85,32c31.58-12.69,62-21.08,91.84-28.7Z"/><path class="cls-1" d="M263.23,236.77l9.47-22.66.76.12c3.52.55,19.28,2.91,43.5,5.22,46.22-17.52,94-43.72,147.59-91.26a276.85,276.85,0,0,0-43.12-4.62c-83.89,68.21-156.07,88.43-225.91,106A276.56,276.56,0,0,0,175,259.69c14.77-4.1,29.38-7.76,43.89-11.4C233.76,244.56,248.49,240.86,263.23,236.77Z"/><path class="cls-1" d="M689.81,397.75C608.91,462.59,538.87,483,471.19,500.16c1.59,9.53,2.92,17.37,4,23.57l15.31-3.85c64.4-16.15,126.18-31.66,196.64-81.13a279,279,0,0,0,2.71-38.8C689.83,399.22,689.82,398.49,689.81,397.75Z"/><path class="cls-1" d="M354.35,534.38c-39.14,15.33-79.53,37.18-123.66,73.17A279,279,0,0,0,256,627.37c32.47-26.25,63.18-45.32,92.68-59.87C350.43,557.42,352.34,546.27,354.35,534.38Z"/><path class="cls-1" d="M372.06,428C304.84,444.9,240,462.61,164.58,520.83a275.12,275.12,0,0,0,15.48,27.63C248.73,493.33,309.59,470.23,367.8,454,369.23,445.34,370.65,436.64,372.06,428Z"/><path class="cls-1" d="M606.09,327.29l-1.82-.89C550.9,367.64,502.21,389.81,455.71,405q2.1,13.19,4,25.05c67-18.78,134.08-46.15,214.42-122.17a274.37,274.37,0,0,0-13.19-31.13,641.19,641.19,0,0,1-55.58,48.79Z"/><path class="cls-1" d="M334.51,665.05A273.81,273.81,0,0,0,376,673.94c69.57-45.73,131.55-61.28,192.09-76.46,17.35-4.35,34.51-8.66,51.7-13.59a277.2,277.2,0,0,0,27.93-37.17c-39,16-76.16,25.35-112.77,34.53C469.38,597.69,406.55,613.45,334.51,665.05Z"/><path class="cls-1" d="M416.37,676.43a275.27,275.27,0,0,0,167.69-59l-10.33,2.6C521.56,633.13,471.11,645.8,416.37,676.43Z"/><path class="cls-1" d="M363.6,479.38c-54,15.76-108.47,38.15-170.21,88.16a277.39,277.39,0,0,0,20.41,23.82c52.13-42.8,99.72-67,145-83.43C360.39,498.64,362,489.09,363.6,479.38Z"/><path class="cls-1" d="M467.36,477.13C538,459.19,606.5,438.61,688.11,369a274.85,274.85,0,0,0-6.52-36.29c-81.36,74.32-151.48,101.88-218.15,120.44Q465.56,466.13,467.36,477.13Z"/><path class="cls-1" d="M460.88,551.49l-45.14,25.83L339.46,621s1.63-9.31,4.32-24.88a469.85,469.85,0,0,0-66.95,44.38,274.39,274.39,0,0,0,31.3,15.27c81.6-62.05,152.31-79.79,221.14-97.05,45.43-11.39,89.54-22.47,136.31-45.35a273.71,273.71,0,0,0,15.06-42.45c-66.51,42-126.18,56.94-184.51,71.57C484.32,545.41,472.59,548.36,460.88,551.49Z"/><path class="cls-1" d="M224.52,198c50.32-14,100.63-32.51,156.49-72.63A275.54,275.54,0,0,0,224.52,198Z"/><path class="cls-2" d="M776.34,532.19l16.58-35.76c6.5,3.9,14.63,6.83,21.13,6.83,8.45,0,13-2.6,17.23-11.38L763,317h52.34L855,435.64,893,317H944.4l-67,178.47c-13.33,35.43-27.63,48.76-57.21,48.76A81.8,81.8,0,0,1,776.34,532.19Z"/><path class="cls-2" d="M947.17,404.72v-.65c0-50.06,40.31-90.69,94.59-90.69,54,0,94,40,94,90v.65c0,50.06-40.31,90.7-94.6,90.7C987.15,494.77,947.17,454.78,947.17,404.72Zm139.78,0v-.65c0-25.68-18.53-48.11-45.84-48.11-28.28,0-45.18,21.78-45.18,47.46v.65c0,25.68,18.53,48.11,45.83,48.11C1070.05,452.18,1087,430.4,1087,404.72Z"/><path class="cls-2" d="M1161.6,429.43V316.63H1211v97.19c0,23.41,11,35.44,29.9,35.44s30.89-12,30.89-35.44V316.63h49.41V490.87H1271.8V466.16c-11.38,14.63-26,28-51,28C1183.38,494.12,1161.6,469.41,1161.6,429.43Z"/><path class="cls-2" d="M1371.82,358.89h-20.48V318.26h20.48V307.2c0-19.18,4.88-33.15,14-42.26s22.43-13.65,40-13.65c15.61,0,26,2,35.11,4.88v40.95a62.59,62.59,0,0,0-22.43-4.22c-11.38,0-17.88,5.85-17.88,18.85v6.83h40v40.31h-39.34v132h-49.41Z"/><path class="cls-2" d="M1486.84,316.63h49.41v35.11c10.08-24.06,26.33-39.66,55.59-38.36v51.68h-2.6c-32.83,0-53,19.83-53,61.44v64.37h-49.41Z"/><path class="cls-2" d="M1602.76,440.81v-.66c0-38,28.93-55.58,70.21-55.58a123.69,123.69,0,0,1,42.58,7.15v-2.93c0-20.47-12.67-31.85-37.38-31.85-18.85,0-32.18,3.57-48.11,9.42l-12.35-37.7c19.18-8.45,38-14,67.61-14,27,0,46.49,7.15,58.84,19.5,13,13,18.85,32.18,18.85,55.59v101.1h-47.78V472c-12,13.33-28.61,22.11-52.66,22.11C1629.74,494.12,1602.76,475.26,1602.76,440.81Zm113.44-11.38v-8.78a76.6,76.6,0,0,0-31.53-6.5c-21.13,0-34.13,8.45-34.13,24.05v.66c0,13.32,11,21.12,27,21.12C1700.6,460,1716.2,447.31,1716.2,429.43Z"/></svg>