<svg id="Laag_1" data-name="Laag 1" xmlns="http://www.w3.org/2000/svg" viewBox="0 0 800 940"><defs><style>.cls-1{fill:#db918e;}</style></defs><title>Tekengebied 1 kopie 8</title><path class="cls-1" d="M29.64,843.88l12.62-27.22c4.94,3,11.13,5.2,16.08,5.2,6.43,0,9.89-2,13.11-8.66L19.5,680.11H59.33L89.51,770.4l28.94-90.29h39.08l-51,135.81C96.43,842.89,85.55,853,63,853A62.26,62.26,0,0,1,29.64,843.88Z"/><path class="cls-1" d="M159.64,746.87v-.49c0-38.1,30.68-69,72-69,41.06,0,71.49,30.43,71.49,68.52v.5c0,38.09-30.67,69-72,69C190.07,815.4,159.64,785,159.64,746.87Zm106.37,0v-.49c0-19.54-14.1-36.61-34.88-36.61-21.52,0-34.38,16.57-34.38,36.11v.5c0,19.54,14.1,36.61,34.88,36.61C253.15,783,266,766.42,266,746.87Z"/><path class="cls-1" d="M322.82,765.67V679.83h37.6v74c0,17.81,8.41,27,22.76,27s23.5-9.15,23.5-27v-74h37.61v132.6H406.68v-18.8c-8.65,11.13-19.79,21.27-38.84,21.27C339.4,814.9,322.82,796.1,322.82,765.67Z"/><path class="cls-1" d="M482.8,712H467.22V681.07H482.8v-8.41c0-14.6,3.72-25.23,10.64-32.16s17.07-10.39,30.43-10.39c11.87,0,19.79,1.48,26.72,3.71V665a47.65,47.65,0,0,0-17.07-3.22c-8.66,0-13.61,4.46-13.61,14.35v5.2h30.43V712H520.41V812.43H482.8Z"/><path class="cls-1" d="M570.33,679.83h37.61v26.72c7.66-18.31,20-30.18,42.3-29.19v39.33h-2c-25,0-40.32,15.09-40.32,46.76v49H570.33Z"/><path class="cls-1" d="M658.54,774.33v-.49c0-29,22-42.31,53.44-42.31A94.12,94.12,0,0,1,744.39,737v-2.23c0-15.58-9.65-24.24-28.45-24.24-14.35,0-24.49,2.72-36.62,7.17L669.92,689c14.6-6.44,29-10.64,51.46-10.64,20.53,0,35.37,5.44,44.77,14.84,9.9,9.9,14.35,24.49,14.35,42.3v76.94H744.14V798.08c-9.15,10.14-21.77,16.82-40.08,16.82C679.08,814.9,658.54,800.55,658.54,774.33Zm86.34-8.66V759a58.43,58.43,0,0,0-24-4.94c-16.08,0-26,6.43-26,18.3v.5c0,10.14,8.41,16.08,20.53,16.08C733,788.93,744.88,779.28,744.88,765.67Z"/><path class="cls-1" d="M189.93,860.38h5.89l12,29.7L220,860.38h5.75l-15.58,36.07h-4.7Z"/><path class="cls-1" d="M239.26,845.64h5.33v50.53h-5.33Z"/><path class="cls-1" d="M259.39,885.79v-.14c0-7.69,6.23-11.7,15.3-11.7a37.47,37.47,0,0,1,10.93,1.52v-1.11c0-6.36-3.87-9.69-10.59-9.69a24.76,24.76,0,0,0-10.86,2.57l-1.6-4.37a29.37,29.37,0,0,1,13-3c5.05,0,9,1.38,11.56,3.94s3.73,6,3.73,10.53v21.87h-5.26v-5.33a15.69,15.69,0,0,1-12.87,6.09C266,896.93,259.39,893.12,259.39,885.79Zm26.3-2.77v-3.33a36.84,36.84,0,0,0-10.45-1.52c-6.64,0-10.45,2.91-10.45,7.2v.14c0,4.5,4.15,7.13,9,7.13C280.36,892.64,285.69,888.69,285.69,883Z"/><path class="cls-1" d="M305,885.79v-.14c0-7.69,6.23-11.7,15.3-11.7a37.54,37.54,0,0,1,10.94,1.52v-1.11c0-6.36-3.88-9.69-10.59-9.69a24.81,24.81,0,0,0-10.87,2.57l-1.59-4.37a29.3,29.3,0,0,1,13-3c5.05,0,9,1.38,11.56,3.94s3.74,6,3.74,10.53v21.87h-5.26v-5.33a15.71,15.71,0,0,1-12.88,6.09C311.64,896.93,305,893.12,305,885.79ZM331.3,883v-3.33a36.84,36.84,0,0,0-10.45-1.52c-6.65,0-10.46,2.91-10.46,7.2v.14c0,4.5,4.16,7.13,9,7.13C326,892.64,331.3,888.69,331.3,883Z"/><path class="cls-1" d="M353.4,860.38h5.33v6.23a13.57,13.57,0,0,1,12.26-7c8.65,0,13.7,5.82,13.7,14.33v22.22h-5.33V875.26c0-6.64-3.6-10.79-9.9-10.79s-10.73,4.5-10.73,11.21v20.49H353.4Z"/><path class="cls-1" d="M399.56,878.38v-.14c0-11.7,8.52-18.62,17.1-18.62,6.65,0,10.94,3.6,13.71,7.62v-21.6h5.33v50.53h-5.33V889c-2.91,4.29-7.13,8-13.71,8C408.08,896.93,399.56,890.15,399.56,878.38Zm31-.07v-.14c0-8.24-6.3-13.77-12.94-13.77-6.92,0-12.6,5.12-12.6,13.77v.14c0,8.45,5.82,13.84,12.6,13.84S430.57,886.55,430.57,878.31Z"/><path class="cls-1" d="M468.92,892.36a14.84,14.84,0,0,0,11.29-5.05l3.32,3A18.49,18.49,0,0,1,468.78,897c-9.82,0-17.85-7.55-17.85-18.69,0-10.38,7.26-18.69,17.16-18.69,10.59,0,16.68,8.45,16.68,19,0,.48,0,1-.06,1.87H456.32C457.09,888,462.62,892.36,468.92,892.36Zm10.46-16.2c-.63-6.5-4.37-12-11.43-12-6.16,0-10.86,5.12-11.63,12Z"/><path class="cls-1" d="M499.81,860.38h5.33v9.35c2.63-6,7.82-10.25,14.61-10v5.74h-.42c-7.82,0-14.19,5.61-14.19,16.41v14.26h-5.33Z"/><path class="cls-1" d="M547.89,892.36a14.82,14.82,0,0,0,11.28-5.05l3.33,3A18.49,18.49,0,0,1,547.75,897c-9.83,0-17.86-7.55-17.86-18.69,0-10.38,7.27-18.69,17.17-18.69,10.59,0,16.68,8.45,16.68,19,0,.48,0,1-.07,1.87H535.29C536.05,888,541.59,892.36,547.89,892.36Zm10.45-16.2c-.62-6.5-4.36-12-11.42-12-6.16,0-10.87,5.12-11.63,12Z"/><path class="cls-1" d="M578.78,860.38h5.33v6.23a13.56,13.56,0,0,1,12.25-7c8.65,0,13.71,5.82,13.71,14.33v22.22h-5.33V875.26c0-6.64-3.6-10.79-9.9-10.79s-10.73,4.5-10.73,11.21v20.49h-5.33Z"/><path class="cls-1" d="M355.56,358.58c1.19-7.17,2.34-14.14,3.44-20.83-28,14.15-56.9,35.09-89,72.19-35.81,41.38-52.31,75.92-61.87,108.7q6.18,6,12.72,11.52c10.22-32.49,27.65-67.6,62.89-108.32C309.06,392.59,332.82,372.85,355.56,358.58Z"/><path class="cls-1" d="M575.35,244.69c-5.15-2.24-11.32-4.82-18.19-7.49-43.17,42-82,58.14-119.48,70.87q1.08,6.68,2.23,13.76l2-.66C485.59,306.8,527.13,293.13,575.35,244.69Z"/><path class="cls-1" d="M576.52,216.92l7.74,18.51q4.86-5.25,9.83-11c16.73-19.34,29.25-37.18,38.81-54.05q-5.29-8.26-11.16-16.12c-10.11,18.23-23.44,37.52-41.39,58.27Q578.43,214.78,576.52,216.92Z"/><path class="cls-1" d="M589.91,249l1.26,3s-1-.5-2.84-1.38c-52.15,53.67-97.89,68.72-142.25,83.31l-4,1.31q1.11,6.85,2.25,13.84c7.2-2.52,14.35-4.87,21.46-7.21,49.25-16.2,95.77-31.5,152.19-96.71a353.5,353.5,0,0,0,32.34-43.21q-4.44-9.46-9.57-18.5a355.71,355.71,0,0,1-36.51,49.81Q597,241.6,589.91,249Z"/><path class="cls-1" d="M348.38,402l4.22-25.46c-18.66,13-38,30.2-58.72,54.12C258.11,471.94,241.61,506.46,232,539.2q6.53,5,13.34,9.59c10.31-31.91,27.74-66.4,62.25-106.28A360.68,360.68,0,0,1,348.38,402Z"/><path class="cls-1" d="M339.77,453.9l5.15-31a378.13,378.13,0,0,0-27.16,28.4c-34.45,39.81-51,73.29-60.75,105q6.89,4.15,14,7.94c10.51-30.44,27.87-63.31,60.48-101Q335.67,458.38,339.77,453.9Z"/><path class="cls-1" d="M470,354.57c-7.87,2.59-15.68,5.16-23.47,7.91q1.18,7.27,2.35,14.47c13.83-5.56,27.39-10,40.82-14.43,49.25-16.2,95.77-31.51,152.2-96.72,8.45-9.76,15.81-19.14,22.27-28.21q-3.3-10.69-7.43-21a375.83,375.83,0,0,1-28.59,37.29C569.25,321.91,518.78,338.52,470,354.57Z"/><path class="cls-1" d="M335.59,479.11c-28.09,33.93-43.18,63.3-52.52,91.06q7.31,3.42,14.85,6.42a279.61,279.61,0,0,1,31.29-59Z"/><path class="cls-1" d="M493.84,375.24c-14.39,4.74-28.56,9.4-42.8,15.25.86,5.32,1.71,10.53,2.53,15.56,20.54-9.89,40.39-16.42,60-22.86,49.25-16.2,95.78-31.51,152.2-96.72q3.93-4.53,7.55-9-1.81-11.92-4.63-23.48-7.59,10.05-16.67,20.56C593.13,342.59,542.66,359.19,493.84,375.24Z"/><path class="cls-1" d="M517.73,395.91c-20.82,6.85-41.14,13.54-61.93,23.89,1,6.08,1.91,11.78,2.75,16.95,27.39-15.95,53.36-24.5,78.87-32.89,45.38-14.93,88.45-29.09,139.07-82.24q.07-10.9-.71-22c-.1-1.31-.2-2.61-.32-3.92C616.78,363.33,566.43,379.9,517.73,395.91Z"/><path class="cls-1" d="M328.67,543.3a252.71,252.71,0,0,0-18.26,37.91q7.86,2.7,15.93,4.93c8.58-19.72,20.55-40.6,37.91-63.2Z"/><path class="cls-1" d="M370.25,259.15l.95-.31A55.14,55.14,0,0,0,370,244.71c-6.52,2.25-13,4.38-19.42,6.5-49.25,16.2-95.78,31.5-152.2,96.71-26,30.08-41.85,56.54-52.22,81.34q4.45,10.32,9.71,20.17c10.81-27.24,27.67-56.58,56.26-89.61C271,291.81,321.43,275.21,370.25,259.15Z"/><path class="cls-1" d="M431.81,236.45a370.31,370.31,0,0,0,35.3-21C452.08,218.41,439.71,224.94,431.81,236.45Z"/><path class="cls-1" d="M541.11,139.2a291.92,291.92,0,0,0,25.35-40.46q-7-5.3-14.36-10.15a329.44,329.44,0,0,1-36.59,53.88C528.08,141.06,536.92,139.82,541.11,139.2Z"/><path class="cls-1" d="M361.66,321.65c1-6.21,2-12,2.87-17.41-37.45,14.22-75,34.85-118.41,85C211.75,429,195.18,462.38,185.44,494q5.81,7.13,12.05,13.84c10.3-32,27.73-66.62,62.37-106.66C296.5,358.83,329.89,336.41,361.66,321.65Z"/><path class="cls-1" d="M570.76,203.14c18.72-21.71,32.12-41.55,42-60.24q-6-7.17-12.39-13.92a328.46,328.46,0,0,1-37.49,55.31Z"/><path class="cls-1" d="M523.41,225.75c-32,28.68-61.61,43.74-90.19,54.68.7,4.38,1.47,9.15,2.29,14.23,35-12,69.32-26.61,107.69-62.61C536.86,229.84,530.2,227.69,523.41,225.75Z"/><path class="cls-1" d="M421.38,148.74c9.76-.23,19.12-.59,28-1,8.22-7.83,16.63-16.64,25.27-26.62,16.66-19.26,29.14-37,38.69-53.84q-8.16-3.66-16.56-6.81a357.92,357.92,0,0,1-35.88,48.75A363.47,363.47,0,0,1,421.38,148.74Z"/><path class="cls-1" d="M322.48,217.81l.25-.08a166.5,166.5,0,0,0-29.64,4.21c-40.92,9.21-82.62,30-82.62,30l.18-.45c-19.07,13.11-38.87,30.56-60.06,55.06a368.53,368.53,0,0,0-26.28,33.95q1.08,14.1,3.51,27.76a356.52,356.52,0,0,1,36.51-49.81C223.19,250.46,273.67,233.86,322.48,217.81Z"/><path class="cls-1" d="M370.39,148.46c9.39.31,19.18.51,29.3.57,16.31-12.27,33.21-27.92,51.11-48.61A350.87,350.87,0,0,0,483.9,56q-8.89-2.84-18-5.08a375.2,375.2,0,0,1-28.81,37.64C413.65,115.57,391.57,134.48,370.39,148.46Z"/><path class="cls-1" d="M219.61,230.1l9.48-22.69c-32.23,14.17-65.16,35.47-102.39,78.5l-1.38,1.61a277.64,277.64,0,0,0-1.82,31.21q7.71-10.23,16.95-20.93C168.5,265.39,194.64,244.66,219.61,230.1Z"/><path class="cls-1" d="M484.1,218.05a268.69,268.69,0,0,1-53.42,32.72,72.07,72.07,0,0,0,.42,16.15c24.85-9.7,49.82-22.5,76.59-45.17A177.09,177.09,0,0,0,484.1,218.05Z"/><path class="cls-1" d="M557,170.26a304,304,0,0,0,33.49-51.15q-6.51-6.18-13.41-11.93A312.42,312.42,0,0,1,549,151Z"/><path class="cls-1" d="M367,289c1.09-6.68,2-12,2.53-15.55-47.46,15.66-92.76,32.05-147.32,95.1-31.17,36-47.7,66.86-57.77,95.86q5.28,8.58,11.15,16.71C186.14,450.82,203.49,418,236,380.49,284,325,326.49,303.71,367,289Z"/><path class="cls-1" d="M236.41,189.91l7.39-17.68c-34.44,11.52-68,24.52-105.11,56.73a274.37,274.37,0,0,0-9.44,34.16C167.83,222.44,202.88,203.11,236.41,189.91Z"/><path class="cls-1" d="M315.68,145.32c9.38.77,19.69,1.5,30.77,2.1,25.36-14,51.62-34.33,80.46-67.67a372.47,372.47,0,0,0,24.88-31.91q-9.92-1.89-20.07-3.05C426.15,52.28,420,60,413.17,67.85,378.18,108.28,346.16,130.54,315.68,145.32Z"/><path class="cls-1" d="M469.58,146.55c9.66-.66,18.59-1.38,26.66-2.12l2.32-2.66c18.8-21.73,32.28-41.57,42.22-60.26q-7.54-4.47-15.37-8.46c-10,17.8-23.11,36.62-40.59,56.82C479.67,135.81,474.6,141.35,469.58,146.55Z"/><path class="cls-1" d="M346.36,238.48c6.11-2,12.17-4,18.21-6.08a31.42,31.42,0,0,0-13-10.3c-8.38,3-16.68,5.72-24.94,8.44-49.25,16.2-95.77,31.5-152.19,96.71C155.54,349.13,142,369.09,132,387.9q3.12,12.24,7.29,24c10.76-22.45,26.1-46.44,48.88-72.77C247.07,271.14,297.55,254.54,346.36,238.48Z"/><path class="cls-1" d="M597.2,513.36c-30,12-60.33,29-93.87,62.74A276,276,0,0,0,597.2,513.36Z"/><path class="cls-1" d="M461.06,575.32q-7.38,8.52-13.69,16.67a275.33,275.33,0,0,0,29.08-6.66C527.82,526.65,572.82,507,616,492.22q7.42-9.29,14-19.2c-5.61,1.92-11.19,3.76-16.74,5.58C564,494.8,517.48,510.11,461.06,575.32Z"/><path class="cls-1" d="M437.18,554.65A354.67,354.67,0,0,0,406,596q6.9-.15,13.87-.66c3-.21,5.92-.48,8.86-.78,6.49-9,13.83-18.38,22.17-28,58.86-68,109.34-84.61,158.15-100.66,10.79-3.55,21.44-7.06,32.1-11.05q5.75-10.23,10.64-21c-21.43,10.58-42.08,17.37-62.44,24.07C540.12,474.13,493.6,489.43,437.18,554.65Z"/><path class="cls-1" d="M413.29,534c-18.91,21.86-32.43,41.81-42.4,60.6q9.66,1,19.5,1.34a355.78,355.78,0,0,1,36.65-50c58.86-68,109.33-84.61,158.15-100.67,25-8.22,49.28-16.21,74.52-30.61q4.59-12.49,8-25.5c-36.15,26.45-69.54,37.43-102.19,48.17C516.24,453.46,469.72,468.76,413.29,534Z"/><path class="cls-1" d="M460.85,450.88c1.56,9.6,2.5,15.36,2.5,15.36L400.82,502l-2.73,1.55c-2.87,3.12-5.76,6.35-8.68,9.73-24.21,28-39.59,52.83-50,76.12q8.61,1.92,17.41,3.31c10.6-20.93,25.28-43.23,46.31-67.53,58.86-68,109.33-84.62,158.15-100.67,36.71-12.08,71.92-23.66,110.83-55.79a272.93,272.93,0,0,0,3.52-27.28c-48.78,47.08-92,61.31-134,75.13C514.56,425.48,488.34,434.11,460.85,450.88Z"/><path class="cls-1" d="M221.57,108.27c31.38-10.8,62.3-23.88,96.1-52.78A275.31,275.31,0,0,0,221.57,108.27Z"/><path class="cls-1" d="M374,44.23a277.79,277.79,0,0,0-29.12,4.3C294.65,98.42,250.3,113,207.25,127.17L198.67,130a278,278,0,0,0-18.73,22.11c16-6.79,31.58-11.92,47-17C274.7,119.42,319.88,104.55,374,44.23Z"/><path class="cls-1" d="M257.78,138.8c-9,3.23-17.83,6.15-26.65,9-22.23,7.31-43.91,14.45-66.2,26.07a278.16,278.16,0,0,0-16.11,29.91c36-26.3,69.29-37.28,101.83-48Z"/><path class="cls-1" d="M257.83,138.78l.71.11c2.8.44,13.34,2,29.72,3.81C324.5,128.51,361,107.63,403,59.08q6.92-8,12.88-15.64-11.46-.64-23.14-.34c-1.15,1.36-2.3,2.71-3.48,4.08C341.07,102.89,298.48,124.11,257.83,138.78Z"/></svg>